<?xml version="1.0" encoding="utf-8"?>
<!-- Generator: Adobe Illustrator 25.4.1, SVG Export Plug-In . SVG Version: 6.00 Build 0)  -->
<svg version="1.1" xmlns="http://www.w3.org/2000/svg" xmlns:xlink="http://www.w3.org/1999/xlink" x="0px" y="0px"
	 viewBox="0 0 428.2 707.5" style="enable-background:new 0 0 428.2 707.5;" xml:space="preserve">
<style type="text/css">
	.st0{display:none;}
	.st1{display:inline;}
	.st2{fill:#FFFFFF;}
	.st3{fill:#FF0000;}
	.st4{fill:#CCFFFF;}
	.st5{fill:#FFFF99;}
</style>
<g id="Layer_1">
	<g class="st0">
		<g class="st1">
			<path class="st2" d="M3206.2-1867.3c0,14.1-11.4,25.6-25.6,25.6c-14.1,0-25.6-11.4-25.6-25.6l25.6-25.6L3206.2-1867.3z"/>
			<path class="st2" d="M3259-1699.4l0.4-0.4l-78.7-78.8l-78.8,78.8l0.4,0.4l-8,7.9c0.6-5.6,3.4-12,4.8-16.4
				c3.9-12.2,8.5-24.1,13.1-36.1l44.3-44.3h12.2v-48.6c3.8,1.2,7.8,1.8,12,1.8c4.1,0,8.2-0.6,11.9-1.8v48.6h12.2l44.3,44.3
				c4.6,12,9.2,23.9,13.1,36.1c1.5,4.4,4.2,10.8,4.8,16.4L3259-1699.4z"/>
			
				<rect x="3111.8" y="-1737.2" transform="matrix(0.7071 0.7071 -0.7071 0.7071 -248.0541 -2737.709)" class="st2" width="137.8" height="137.8"/>
		</g>
		<g class="st1">
			<path class="st2" d="M3150.2-1873c-14.1,0-25.6-11.4-25.6-25.6c0-14.1,11.4-25.6,25.6-25.6l25.6,25.6L3150.2-1873z"/>
			<path class="st2" d="M2982.4-1820.2l0.4,0.4l78.8-78.7l-78.8-78.8l-0.4,0.4l-7.9-8c5.6,0.6,12,3.4,16.4,4.8
				c12.2,3.9,24.1,8.5,36.1,13.1l44.3,44.3v12.2h48.6c-1.2,3.8-1.8,7.8-1.8,12s0.6,8.2,1.8,12h-48.6v12.2l-44.3,44.3
				c-12,4.6-23.9,9.2-36.1,13.1c-4.4,1.5-10.8,4.2-16.4,4.8L2982.4-1820.2z"/>
			
				<rect x="2882.3" y="-1967.4" transform="matrix(-0.7071 0.7071 -0.7071 -0.7071 3695.6128 -5327.7954)" class="st2" width="137.8" height="137.8"/>
		</g>
		<g class="st1">
			<path class="st2" d="M2873.3-2203.7c0,14.1-11.4,25.6-25.6,25.6s-25.6-11.4-25.6-25.6l25.6-25.6L2873.3-2203.7z"/>
			<path class="st2" d="M2926.1-2035.9l0.4-0.4l-78.7-78.8l-78.8,78.8l0.4,0.4l-8,7.9c0.6-5.6,3.4-12,4.8-16.4
				c3.9-12.2,8.5-24.1,13.1-36.1l44.3-44.3h12.2v-48.6c3.8,1.2,7.8,1.8,12,1.8c4.1,0,8.2-0.6,11.9-1.8v48.6h12.2l44.3,44.3
				c4.6,12,9.2,23.9,13.1,36.1c1.5,4.4,4.2,10.8,4.8,16.4L2926.1-2035.9z"/>
			
				<rect x="2778.9" y="-2073.6" transform="matrix(0.7071 0.7071 -0.7071 0.7071 -583.4534 -2600.8591)" class="st2" width="137.8" height="137.8"/>
		</g>
		<g class="st1">
			<path class="st2" d="M2817.2-2209.5c-14.1,0-25.6-11.4-25.6-25.6c0-14.1,11.4-25.6,25.6-25.6l25.6,25.6L2817.2-2209.5z"/>
			<path class="st2" d="M2649.3-2156.7l0.4,0.4l78.8-78.7l-78.8-78.8l-0.4,0.4l-7.9-8c5.6,0.6,12,3.4,16.4,4.8
				c12.2,3.9,24.1,8.5,36.1,13.1l44.3,44.3v12.2h48.6c-1.2,3.8-1.8,7.8-1.8,12c0,4.1,0.6,8.2,1.8,11.9h-48.6v12.2l-44.3,44.3
				c-12,4.6-23.9,9.2-36.1,13.1c-4.4,1.5-10.8,4.2-16.4,4.8L2649.3-2156.7z"/>
			
				<rect x="2549.3" y="-2303.9" transform="matrix(-0.7071 0.7071 -0.7071 -0.7071 2889.1272 -5666.8101)" class="st3" width="137.8" height="137.8"/>
		</g>
		<g class="st1">
			<path class="st2" d="M2876.3-2260.6c14.1,0,25.6,11.4,25.6,25.6s-11.4,25.6-25.6,25.6l-25.6-25.6L2876.3-2260.6z"/>
			<path class="st2" d="M3044.2-2313.4l-0.4-0.4l-78.8,78.7l78.8,78.8l0.4-0.4l7.9,8c-5.6-0.6-12-3.4-16.4-4.8
				c-12.2-3.9-24.1-8.5-36.1-13.1l-44.3-44.3v-12.2h-48.6c1.2-3.8,1.8-7.8,1.8-12c0-4.1-0.6-8.2-1.8-11.9h48.6v-12.2l44.3-44.3
				c12-4.6,23.9-9.2,36.1-13.1c4.4-1.5,10.8-4.2,16.4-4.8L3044.2-2313.4z"/>
			
				<rect x="3006.5" y="-2303.9" transform="matrix(0.7071 -0.7071 0.7071 0.7071 2481.1692 1519.9779)" class="st2" width="137.8" height="137.8"/>
		</g>
		<g class="st1">
			<path class="st2" d="M3380.5-2106.3c-14.1,0-25.6-11.4-25.6-25.6c0-14.1,11.4-25.6,25.6-25.6l25.6,25.6L3380.5-2106.3z"/>
			<path class="st2" d="M3212.6-2053.5l0.4,0.4l78.8-78.7l-78.8-78.8l-0.4,0.4l-7.9-8c5.6,0.6,12,3.4,16.4,4.8
				c12.2,3.9,24.1,8.5,36.1,13.1l44.3,44.3v12.2h48.6c-1.2,3.8-1.8,7.8-1.8,12c0,4.1,0.6,8.2,1.8,11.9h-48.6v12.2l-44.3,44.3
				c-12,4.6-23.9,9.2-36.1,13.1c-4.4,1.5-10.8,4.2-16.4,4.8L3212.6-2053.5z"/>
			
				<rect x="3112.6" y="-2200.7" transform="matrix(-0.7071 0.7071 -0.7071 -0.7071 3923.7041 -5888.9404)" class="st2" width="137.8" height="137.8"/>
		</g>
		<g class="st1">
			<path class="st2" d="M3382.5-2162.9c0-14.1,11.4-25.6,25.6-25.6c14.1,0,25.6,11.4,25.6,25.6l-25.6,25.6L3382.5-2162.9z"/>
			<path class="st2" d="M3329.7-2330.8l-0.4,0.4l78.7,78.8l78.8-78.8l-0.4-0.4l8-7.9c-0.6,5.6-3.4,12-4.8,16.4
				c-3.9,12.2-8.5,24.1-13.1,36.1l-44.3,44.3H3420v48.6c-3.8-1.2-7.8-1.8-12-1.8c-4.1,0-8.2,0.6-11.9,1.8v-48.6h-12.2l-44.3-44.3
				c-4.6-12-9.2-23.9-13.1-36.1c-1.5-4.4-4.2-10.8-4.8-16.4L3329.7-2330.8z"/>
			
				<rect x="3339.2" y="-2430.9" transform="matrix(-0.7071 -0.7071 0.7071 -0.7071 7488.0747 -1622.256)" class="st2" width="137.8" height="137.8"/>
		</g>
		<g class="st1">
			<path class="st2" d="M3710.4-2438.8c-14.1,0-25.6-11.4-25.6-25.6c0-14.1,11.4-25.6,25.6-25.6l25.6,25.6L3710.4-2438.8z"/>
			<path class="st2" d="M3542.5-2386l0.4,0.4l78.8-78.7l-78.8-78.8l-0.4,0.4l-7.9-8c5.6,0.6,12,3.4,16.4,4.8
				c12.2,3.9,24.1,8.5,36.1,13.1l44.3,44.3v12.2h48.6c-1.2,3.8-1.8,7.8-1.8,12c0,4.1,0.6,8.2,1.8,11.9h-48.6v12.2l-44.3,44.3
				c-12,4.6-23.9,9.2-36.1,13.1c-4.4,1.5-10.8,4.2-16.4,4.8L3542.5-2386z"/>
			
				<rect x="3442.5" y="-2533.3" transform="matrix(-0.7071 0.7071 -0.7071 -0.7071 4251.7129 -6689.9175)" class="st2" width="137.8" height="137.8"/>
		</g>
		<g class="st1">
			<path class="st2" d="M3766.4-2434.3c0,14.1-11.4,25.6-25.6,25.6c-14.1,0-25.6-11.4-25.6-25.6l25.6-25.6L3766.4-2434.3z"/>
			<path class="st2" d="M3819.2-2266.4l0.4-0.4l-78.7-78.8l-78.8,78.8l0.4,0.4l-8,7.9c0.6-5.6,3.4-12,4.8-16.4
				c3.9-12.2,8.5-24.1,13.1-36.1l44.3-44.3h12.2v-48.6c3.8,1.2,7.8,1.8,12,1.8c4.1,0,8.2-0.6,11.9-1.8v48.6h12.2l44.3,44.3
				c4.6,12,9.2,23.9,13.1,36.1c1.5,4.4,4.2,10.8,4.8,16.4L3819.2-2266.4z"/>
			
				<rect x="3671.9" y="-2304.2" transform="matrix(0.7071 0.7071 -0.7071 0.7071 -484.9138 -3299.8726)" class="st2" width="137.8" height="137.8"/>
		</g>
	</g>
	<g class="st0">
		<g class="st1">
			<path class="st2" d="M3535.4-1569.6c12.5-12.5,32.8-12.5,45.3,0c12.5,12.5,12.5,32.8,0,45.3h-45.3V-1569.6z"/>
			<path class="st2" d="M3637.4-1765.3l-0.7,0l0,139.7h139.7l0-0.7l14.1,0c-5.5,4.4-13.6,7.6-18.8,10.3
				c-14.2,7.4-28.9,13.9-43.6,20.5l-78.6,0l-10.8-10.8l-43.1,43.1c-2.3-4.4-5.4-8.5-9-12.2c-3.7-3.7-7.8-6.7-12.2-9l43.1-43.1
				l-10.8-10.8v-78.5c6.6-14.8,13.1-29.4,20.4-43.6c2.6-5.2,5.9-13.4,10.3-18.8L3637.4-1765.3z"/>
			
				<rect x="3648.1" y="-1809.8" transform="matrix(1.688151e-13 -1 1 1.688151e-13 5457.9375 2011.0911)" class="st2" width="172.8" height="172.8"/>
		</g>
		<g class="st1">
			<path class="st2" d="M3082.9-2107.9c-12.5-12.5-12.5-32.8,0-45.3s32.8-12.5,45.3,0v45.3H3082.9z"/>
			<path class="st2" d="M2887.2-2210l0,0.7l139.7,0v-139.7l-0.7,0l0-14.1c4.4,5.5,7.6,13.6,10.3,18.8c7.4,14.2,13.9,28.9,20.5,43.6
				l0,78.6l-10.8,10.8l43.1,43.1c-4.4,2.3-8.5,5.4-12.2,9c-3.7,3.7-6.7,7.8-9,12.2l-43.1-43.1l-10.8,10.8h-78.5
				c-14.8-6.6-29.4-13.1-43.6-20.4c-5.2-2.6-13.4-5.9-18.8-10.3L2887.2-2210z"/>
			
				<rect x="2842.6" y="-2393.5" transform="matrix(-1 -2.314929e-13 2.314929e-13 -1 5858.1167 -4614.1167)" class="st2" width="172.8" height="172.8"/>
		</g>
		<g class="st1">
			<path class="st2" d="M3483.3-1524.3c-12.5-12.5-12.5-32.8,0-45.3c12.5-12.5,32.8-12.5,45.3,0v45.3H3483.3z"/>
			<path class="st2" d="M3287.6-1626.3l0,0.7l139.7,0v-139.7l-0.7,0l0-14.1c4.4,5.5,7.6,13.6,10.3,18.8
				c7.4,14.2,13.9,28.9,20.5,43.6l0,78.6l-10.8,10.8l43.1,43.1c-4.4,2.3-8.5,5.4-12.2,9c-3.7,3.7-6.7,7.8-9,12.2l-43.1-43.1
				l-10.8,10.8H3336c-14.8-6.6-29.4-13.1-43.6-20.4c-5.2-2.6-13.4-5.9-18.8-10.3L3287.6-1626.3z"/>
			
				<rect x="3243.1" y="-1809.9" transform="matrix(-1 -1.790904e-13 1.790904e-13 -1 6658.9746 -3446.8987)" class="st2" width="172.8" height="172.8"/>
		</g>
		<g class="st1">
			<path class="st2" d="M3175.4-2104.4c12.5,12.5,12.5,32.8,0,45.3c-12.5,12.5-32.8,12.5-45.3,0l0-45.3L3175.4-2104.4z"/>
			<path class="st2" d="M3371.1-2002.4l0-0.7l-139.7,0v139.7l0.7,0l0,14.1c-4.4-5.5-7.6-13.6-10.3-18.8
				c-7.4-14.2-13.9-28.9-20.5-43.6l0-78.6l10.8-10.8l-43.1-43.1c4.4-2.3,8.5-5.4,12.2-9c3.7-3.7,6.7-7.8,9-12.2l43.1,43.1l10.8-10.8
				h78.5c14.8,6.6,29.4,13.1,43.6,20.4c5.2,2.6,13.4,5.9,18.8,10.3L3371.1-2002.4z"/>
			<rect x="3242.8" y="-1991.7" class="st2" width="172.8" height="172.8"/>
		</g>
		<g class="st1">
			<path class="st2" d="M2593.2-2505.8c12.5,12.5,12.5,32.8,0,45.3c-12.5,12.5-32.8,12.5-45.3,0v-45.3H2593.2z"/>
			<path class="st2" d="M2788.9-2403.8l0-0.7l-139.7,0v139.7l0.7,0l0,14.1c-4.4-5.5-7.6-13.6-10.3-18.8
				c-7.4-14.2-13.9-28.9-20.5-43.6l0-78.6l10.8-10.8l-43.1-43.1c4.4-2.3,8.5-5.4,12.2-9c3.7-3.7,6.7-7.8,9-12.2l43.1,43.1l10.8-10.8
				h78.5c14.8,6.6,29.4,13.1,43.6,20.4c5.2,2.6,13.4,5.9,18.8,10.3L2788.9-2403.8z"/>
			<rect x="2660.6" y="-2393.1" class="st2" width="172.8" height="172.8"/>
		</g>
	</g>
	<g class="st0">
		<g class="st1">
			<path class="st2" d="M3376.7-2049.4c-19.4,0-35.1-15.7-35.1-35.1c0-19.4,15.7-35.1,35.1-35.1l35.1,35.1L3376.7-2049.4z"/>
			<path class="st2" d="M3145.9-1976.8l0.6,0.6l108.3-108.3l-108.3-108.3l-0.6,0.6l-10.9-11c7.6,0.9,16.5,4.7,22.6,6.6
				c16.8,5.3,33.1,11.6,49.7,18l60.9,60.9v16.7h66.8c-1.6,5.2-2.5,10.8-2.5,16.5c0,5.7,0.9,11.2,2.5,16.4H3268v16.7l-60.9,60.9
				c-16.5,6.4-32.9,12.6-49.7,18c-6.1,2-14.9,5.8-22.6,6.6L3145.9-1976.8z"/>
			
				<rect x="3008.3" y="-2179.3" transform="matrix(-0.7071 0.7071 -0.7071 -0.7071 3823.2429 -5752.6699)" class="st2" width="189.5" height="189.5"/>
		</g>
		<g class="st1">
			<path class="st2" d="M2995.5-2501.4c0,19.4-15.7,35.1-35.1,35.1c-19.4,0-35.1-15.7-35.1-35.1l35.1-35.1L2995.5-2501.4z"/>
			<path class="st2" d="M3068.1-2270.6l0.6-0.6l-108.3-108.3l-108.3,108.3l0.6,0.6l-11,10.9c0.9-7.6,4.7-16.5,6.6-22.6
				c5.3-16.8,11.6-33.1,18-49.7l60.9-60.9h16.7v-66.8c5.2,1.6,10.8,2.5,16.5,2.5c5.7,0,11.2-0.9,16.4-2.5v66.8h16.7l60.9,60.9
				c6.4,16.5,12.6,32.9,18,49.7c2,6.1,5.8,14.9,6.6,22.6L3068.1-2270.6z"/>
			
				<rect x="2865.6" y="-2322.6" transform="matrix(0.7071 0.7071 -0.7071 0.7071 -708.2321 -2745.8093)" class="st2" width="189.5" height="189.5"/>
		</g>
		<g class="st1">
			<path class="st2" d="M2544.7-2120.9c19.4,0,35.1,15.7,35.1,35.1c0,19.4-15.7,35.1-35.1,35.1l-35.1-35.1L2544.7-2120.9z"/>
			<path class="st2" d="M2775.5-2193.5l-0.6-0.6l-108.3,108.3l108.3,108.3l0.6-0.6l10.9,11c-7.6-0.9-16.5-4.7-22.6-6.6
				c-16.8-5.3-33.1-11.6-49.7-18l-60.9-60.9v-16.7h-66.8c1.6-5.2,2.5-10.8,2.5-16.5c0-5.7-0.9-11.2-2.5-16.4h66.8v-16.7l60.9-60.9
				c16.5-6.4,32.9-12.6,49.7-18c6.1-2,14.9-5.8,22.6-6.6L2775.5-2193.5z"/>
			
				<rect x="2723.6" y="-2180.5" transform="matrix(0.7071 -0.7071 0.7071 0.7071 2300.3015 1381.9585)" class="st2" width="189.5" height="189.5"/>
		</g>
		<g class="st1">
			<path class="st2" d="M3450.9-2119.7c19.4,0,35.1,15.7,35.1,35.1c0,19.4-15.7,35.1-35.1,35.1l-35.1-35.1L3450.9-2119.7z"/>
			<path class="st2" d="M3681.8-2192.3l-0.6-0.6l-108.3,108.3l108.3,108.3l0.6-0.6l10.9,11c-7.6-0.9-16.5-4.7-22.6-6.6
				c-16.8-5.3-33.1-11.6-49.7-18l-60.9-60.9v-16.7h-66.8c1.6-5.2,2.5-10.8,2.5-16.5c0-5.7-0.9-11.2-2.5-16.4h66.8v-16.7l60.9-60.9
				c16.5-6.4,32.9-12.6,49.7-18c6.1-2,14.9-5.8,22.6-6.6L3681.8-2192.3z"/>
			
				<rect x="3629.8" y="-2179.3" transform="matrix(0.7071 -0.7071 0.7071 0.7071 2564.8789 2023.1349)" class="st2" width="189.5" height="189.5"/>
		</g>
		<g class="st1">
			<path class="st2" d="M2467.4-2129c0-19.4,15.7-35.1,35.1-35.1c19.4,0,35.1,15.7,35.1,35.1l-35.1,35.1L2467.4-2129z"/>
			<path class="st2" d="M2394.8-2359.8l-0.6,0.6l108.3,108.3l108.3-108.3l-0.6-0.6l11-10.9c-0.9,7.6-4.7,16.5-6.6,22.6
				c-5.3,16.8-11.6,33.1-18,49.7l-60.9,60.9H2519v66.8c-5.2-1.6-10.8-2.5-16.5-2.5c-5.7,0-11.2,0.9-16.4,2.5v-66.8h-16.7l-60.9-60.9
				c-6.4-16.5-12.6-32.9-18-49.7c-2-6.1-5.8-14.9-6.6-22.6L2394.8-2359.8z"/>
			
				<rect x="2407.8" y="-2497.3" transform="matrix(-0.7071 -0.7071 0.7071 -0.7071 5971.0239 -2331.9377)" class="st2" width="189.5" height="189.5"/>
		</g>
		<g class="st1">
			<path class="st2" d="M3832.5-1668.9c0-19.4,15.7-35.1,35.1-35.1s35.1,15.7,35.1,35.1l-35.1,35.1L3832.5-1668.9z"/>
			<path class="st2" d="M3759.9-1899.7l-0.6,0.6l108.3,108.3l108.3-108.3l-0.6-0.6l11-10.9c-0.9,7.6-4.7,16.5-6.6,22.6
				c-5.3,16.8-11.6,33.1-18,49.7l-60.9,60.9h-16.7v66.8c-5.2-1.6-10.8-2.5-16.5-2.5c-5.7,0-11.2,0.9-16.4,2.5v-66.8h-16.7
				l-60.9-60.9c-6.4-16.5-12.6-32.9-18-49.7c-2-6.1-5.8-14.9-6.6-22.6L3759.9-1899.7z"/>
			
				<rect x="3772.9" y="-2037.3" transform="matrix(-0.7071 -0.7071 0.7071 -0.7071 7976.0547 -581.2658)" class="st2" width="189.5" height="189.5"/>
		</g>
		<g class="st1">
			<path class="st2" d="M3827.4-1594.6c-19.4,0-35.1-15.7-35.1-35.1c0-19.4,15.7-35.1,35.1-35.1l35.1,35.1L3827.4-1594.6z"/>
			<path class="st2" d="M3596.6-1522l0.6,0.6l108.3-108.3L3597.2-1738l-0.6,0.6l-10.9-11c7.6,0.9,16.5,4.7,22.6,6.6
				c16.8,5.3,33.1,11.6,49.7,18l60.9,60.9v16.7h66.8c-1.6,5.2-2.5,10.8-2.5,16.5c0,5.7,0.9,11.2,2.5,16.4h-66.8v16.7l-60.9,60.9
				c-16.5,6.4-32.9,12.6-49.7,18c-6.1,2-14.9,5.8-22.6,6.6L3596.6-1522z"/>
			
				<rect x="3459.1" y="-1724.5" transform="matrix(-0.7071 0.7071 -0.7071 -0.7071 4914.2817 -5295.0771)" class="st2" width="189.5" height="189.5"/>
		</g>
	</g>
	<g>
		<path class="st4" d="M158,651.4c0-31,25.1-56.2,56.2-56.2c31,0,56.2,25.1,56.2,56.2l-56.2,56.2L158,651.4z"/>
		<path class="st4" d="M41.9,282.5l-0.9,0.9l173,173.1l173.1-173.1l-0.9-0.9l17.5-17.5c-1.4,12.2-7.4,26.3-10.6,36
			c-8.5,26.8-18.6,53-28.7,79.4l-97.4,97.3h-26.7v106.7c-8.3-2.6-17.2-3.9-26.3-3.9c-9.1,0-17.9,1.4-26.3,3.9V477.8h-26.7
			l-97.3-97.3c-10.2-26.4-20.2-52.6-28.8-79.4c-3.2-9.7-9.3-23.8-10.6-36L41.9,282.5z"/>
		
			<rect x="62.7" y="62.7" transform="matrix(-0.7071 -0.7071 0.7071 -0.7071 214.1009 516.8853)" class="st5" width="302.8" height="302.8"/>
		
			<rect x="62.7" y="62.7" transform="matrix(-0.7071 -0.7071 0.7071 -0.7071 214.1009 516.8853)" class="st4" width="302.8" height="302.8"/>
	</g>
</g>
<g id="Layer_2">
</g>
</svg>
