<svg xmlns="http://www.w3.org/2000/svg" viewBox="0 0 972.68 236.27"><defs><style>.cls-1{fill:#cff;}</style></defs><g id="Layer_2" data-name="Layer 2"><g id="Layer_1-2" data-name="Layer 1"><path class="cls-1" d="M114.74,156.19c0,7.49-6.32,11.7-13.58,11.7s-13.58-3.51-13.58-10.3v-5.15c.23,0-1.41,1.64-3,3.28-.93.93-2.11,1.87-3.28,3-3.74,4.45-13.11,7.49-18.5,7.49H41c-24.59,0-41-17.79-41-41V82.42c0-22.71,17.33-40,41-40H58.07c7.26,0,16.39,3,22.25,8.67l7.49,7V11.94C87.81,4.21,94.13,0,101.39,0c7.73,0,13.35,4.21,13.35,11.94Zm-26.93-33V90.85C81.49,85,75.4,78.21,69.08,72.59a20.64,20.64,0,0,0-13.35-4.68H39.34C33,67.91,27.16,74,27.16,80.32v48.47C27.16,135.11,33,141,39.34,141H62.29a16.75,16.75,0,0,0,12.17-4.69Z"/><path class="cls-1" d="M249.85,156.19c0,7.49-6.09,11.7-13.35,11.7-7.73,0-13.58-3.27-13.58-9.6v-2.81c-.94.71-3.28,2.35-5.39,4a37.59,37.59,0,0,0-3.75,2.58q-8.07,5.63-16.15,5.62H176.55c-23.18,0-38.63-13.82-38.63-35.12V118c0-19.67,16.39-35.6,36.76-35.6h16.86a38.9,38.9,0,0,1,25.76,9.84l5.85,5.15V82.19c0-9.13-3-13.81-15-13.81h-44c-7.72,0-12.64-5.16-12.64-12.88,0-7.26,4.92-13.12,12.64-13.12h44c25.29,0,41.69,17.33,41.69,39.81ZM223.15,130v-4.45c-6.32-5.39-11.71-9.6-17.09-13.58-4.45-3.51-7.26-5.39-12.65-5.39H175.15c-6.79,0-10.54,5.16-10.54,11.48v16.86c0,5.38,4.22,8.9,10.54,8.9H200a16.29,16.29,0,0,0,11.71-4.45Z"/><path class="cls-1" d="M386.36,125c0,23.42-18.74,42.62-44.26,42.62H314.47c-25.52,0-44.26-19.2-44.26-42.62V85c0-23.18,20.14-42.62,43.56-42.62h29c24.36,0,43.56,19.44,43.56,42.62ZM344,141.67a15.6,15.6,0,0,0,15.69-15.22V83.6c0-8.2-6.55-15.22-14.75-15.22h-33c-8.66,0-14.75,7-14.75,15.22v42.85a15.44,15.44,0,0,0,15.69,15.22Z"/><path class="cls-1" d="M566.42,156.19c0,7.49-6.32,11.7-13.81,11.7-7.26,0-14.05-4.21-14.05-11.7V77.74c0-5.85-2.11-9.6-7.5-9.6h-6.32c-4.45,0-6.56,1.17-9.6,3.75-1.64.93-4.45,3.74-7.26,6.32-1.64,1.64-3.51,3-5.15,4.68v73.3c0,7.49-6.56,11.7-13.82,11.7s-14.05-4.21-14.05-11.7V77.74c0-5.62-2.81-9.6-7.49-9.6h-2.81c-2.11,0-4.92,1.41-8,4.45L437.4,89.45v66.74c0,7.49-6.32,11.7-13.58,11.7-7.5,0-14.05-4.21-14.05-11.7V53.86c0-8.2,6.32-11.71,13.58-11.71,7.49,0,13.81,3.51,13.81,11.71v6.32c2.58-1.87,11.48-10.07,13.59-11.47,3.51-2.81,10.06-6.33,13.81-6.33h3.75c13.81,0,22,6.33,27.63,17.33l7.26-6.79c6.32-6.32,14.05-10.54,20.84-10.54h8.66c22.48,0,33.72,15.69,33.72,37Z"/><path class="cls-1" d="M680.22,141.9c7.73,0,12.88,5.15,12.88,12.88s-5.15,12.88-12.88,12.88H632.45c-25.29,0-42.38-17.09-42.38-40.51V83.36c0-22.71,17.33-41,41-41H662a40.87,40.87,0,0,1,41,41V96.24c0,9.84-11.24,20.84-22,20.84H617v13.11c0,6.79,7,11.71,13.34,11.71ZM676,93.9V80.32c0-6.32-5.85-12.65-12.17-12.65h-34C623.08,67.67,617,74,617,80.32V93.9Z"/><path class="cls-1" d="M799.17,209.81c9.37,0,14.75-4,14.75-14.05,0-8.2-4.45-12.88-11.94-12.88H747.42c-11.94,0-19.67-5.85-19.67-15.22,0-5.39,1.4-9.13,4.21-14l10.31-18.26a43,43,0,0,1-20.14-36.3V83.36c0-23.41,20.14-42.62,43.55-42.62H835c8.19,0,12.17,4.45,12.17,11.71,0,8.2-4,13.12-12.17,13.12h-4.92c4.45,3.51,8.66,12.17,8.66,20.6V99.05c0,23.65-19.2,42.85-44.49,42.85H765.68c.24,0-1.87,4-4,8-.93,1.88-1.87,3.75-2.81,5.39-.7,1.64,12.88,2.34,41,2.34,27.16,0,41,16.63,41,38.17,0,24.35-17.8,40.51-42.85,40.51H761.7c-25.29,0-40.74-12.88-40.74-33.72,0-7.26,6.09-12.18,13.58-12.18,7.26,0,13.35,3.28,13.35,11.48,0,5.38,4.21,8,12.64,8Zm-2.81-92.49c8.66,0,15.45-8.9,15.45-16.86V82c0-10.07-6.32-15.69-15.69-15.69H764c-9.13,0-15,7.49-15,15.69v18.5c0,8,6.56,16.86,15.69,16.86Z"/><path class="cls-1" d="M972.68,156.19c0,7.49-6.09,11.7-13.35,11.7-7.73,0-13.58-3.27-13.58-9.6v-2.81c-.94.71-3.28,2.35-5.39,4a36.37,36.37,0,0,0-3.74,2.58q-8.08,5.63-16.16,5.62H899.38c-23.18,0-38.63-13.82-38.63-35.12V118c0-19.67,16.39-35.6,36.76-35.6h16.86a38.9,38.9,0,0,1,25.76,9.84L946,97.41V82.19c0-9.13-3-13.81-15-13.81H887c-7.72,0-12.64-5.16-12.64-12.88,0-7.26,4.92-13.12,12.64-13.12h44c25.29,0,41.68,17.33,41.68,39.81ZM946,130v-4.45c-6.32-5.39-11.71-9.6-17.09-13.58-4.45-3.51-7.26-5.39-12.65-5.39H898c-6.79,0-10.54,5.16-10.54,11.48v16.86c0,5.38,4.22,8.9,10.54,8.9H922.8a16.27,16.27,0,0,0,11.71-4.45Z"/></g></g></svg>